<?xml version="1.0" encoding="UTF-8" standalone="no"?>
<!DOCTYPE svg PUBLIC "-//W3C//DTD SVG 1.1//EN" "http://www.w3.org/Graphics/SVG/1.1/DTD/svg11.dtd">
<svg version="1.1" xmlns="http://www.w3.org/2000/svg" xmlns:xlink="http://www.w3.org/1999/xlink" preserveAspectRatio="xMidYMid meet" viewBox="0 0 600 600" width="600" height="600"><defs><path d="M203.94 412.92L185.55 444.76L185.43 444.99L185.31 445.22L185.2 445.46L185.11 445.7L185.02 445.94L184.95 446.18L184.88 446.43L184.83 446.67L184.78 446.92L184.75 447.17L184.72 447.41L184.7 447.66L184.7 447.91L184.7 448.15L184.71 448.4L184.74 448.65L184.77 448.89L184.81 449.13L184.86 449.37L184.92 449.61L184.98 449.85L185.06 450.08L185.15 450.31L185.24 450.54L185.34 450.76L185.46 450.98L185.58 451.19L185.71 451.4L185.84 451.61L185.99 451.81L186.14 452.01L186.31 452.2L186.48 452.38L186.66 452.56L186.84 452.73L187.04 452.9L187.24 453.06L187.45 453.21L187.67 453.35L187.89 453.49L188.12 453.62L188.36 453.73L188.59 453.84L188.83 453.94L189.07 454.02L189.32 454.1L189.56 454.16L189.81 454.22L190.05 454.26L190.3 454.3L190.55 454.33L190.79 454.34L191.04 454.35L191.29 454.34L191.53 454.33L191.78 454.31L192.02 454.28L192.26 454.24L192.5 454.19L192.74 454.13L192.98 454.06L193.21 453.98L193.44 453.9L193.67 453.8L193.89 453.7L194.11 453.59L194.33 453.47L194.54 453.34L194.74 453.2L194.94 453.05L195.14 452.9L195.33 452.74L195.52 452.57L195.69 452.39L195.87 452.2L196.03 452.01L196.19 451.81L196.34 451.6L196.49 451.38L196.62 451.15L217.7 414.64L223.64 415.33L235.16 416.46L235.16 474.16L250.75 464.27L229.91 500.38L229.88 500.36L183.5 541.26L137.05 582.21L149.29 521.51L161.52 460.89L161.49 460.88L190.32 410.95L197.46 412.05L203.94 412.92ZM154.15 553.61L187.41 524.28L220.61 495.01L214.78 491.64L197.72 500.09L180.89 505.43L179.06 489.32L177.85 470.32L171.67 466.76L162.92 510.14L154.15 553.61ZM320.44 167.26L313.9 178.59L311.1 178.52L301.41 178.44L291.72 178.52L282.13 178.77L272.65 179.17L263.28 179.72L254.03 180.43L244.91 181.29L235.93 182.29L227.09 183.44L218.41 184.72L209.88 186.14L201.52 187.7L193.34 189.38L185.34 191.19L177.53 193.13L169.92 195.18L162.52 197.35L155.33 199.64L148.35 202.03L141.61 204.54L135.1 207.14L128.84 209.85L122.82 212.66L117.07 215.56L111.58 218.56L106.37 221.64L101.43 224.81L96.79 228.06L92.44 231.39L88.4 234.8L84.67 238.28L81.25 241.83L78.17 245.45L75.42 249.13L73.01 252.87L70.95 256.66L69.25 260.51L67.91 264.41L66.95 268.36L66.36 272.36L66.17 276.39L66.36 280.43L66.95 284.42L67.91 288.37L69.25 292.27L70.95 296.12L73.01 299.92L75.42 303.66L78.17 307.34L81.25 310.95L84.67 314.5L88.4 317.98L92.44 321.39L96.79 324.72L101.43 327.97L106.37 331.14L111.58 334.22L117.07 337.22L122.82 340.12L128.84 342.93L135.1 345.64L141.61 348.25L148.35 350.75L155.33 353.15L162.52 355.43L169.92 357.6L177.53 359.66L185.34 361.59L193.34 363.4L201.52 365.09L209.88 366.64L218.41 368.06L227.09 369.35L235.93 370.49L241.99 371.17L241.99 324.15L350.18 392.79L241.99 461.42L241.99 413.46L232.41 412.52L221.44 411.25L210.65 409.79L200.04 408.16L189.63 406.35L179.42 404.37L169.43 402.23L159.66 399.93L150.13 397.47L140.83 394.86L131.79 392.09L123 389.19L114.49 386.14L106.25 382.95L98.3 379.64L90.65 376.19L83.31 372.62L76.28 368.93L69.58 365.12L63.21 361.2L57.19 357.16L51.52 353.03L46.21 348.79L41.27 344.46L36.71 340.03L32.54 335.52L28.77 330.92L25.42 326.24L22.47 321.48L19.96 316.65L17.88 311.75L16.25 306.79L15.07 301.77L14.36 296.69L14.12 291.56L14.36 286.42L15.07 281.34L16.25 276.32L17.88 271.36L19.96 266.46L22.47 261.63L25.42 256.87L28.77 252.19L32.54 247.59L36.71 243.08L41.27 238.65L46.21 234.32L51.52 230.08L57.19 225.95L63.21 221.92L69.58 217.99L76.28 214.19L83.31 210.49L90.65 206.92L98.3 203.47L106.25 200.16L114.49 196.97L123 193.92L131.79 191.02L140.83 188.26L150.13 185.64L159.66 183.18L169.43 180.88L179.42 178.74L189.63 176.76L200.04 174.96L210.65 173.32L221.44 171.87L232.41 170.59L243.54 169.5L254.84 168.6L266.28 167.89L277.86 167.38L289.58 167.07L301.41 166.97L313.25 167.07L320.44 167.26ZM443.16 183.18L452.7 185.64L462 188.26L471.04 191.02L479.82 193.92L488.34 196.97L496.57 200.16L504.52 203.47L512.17 206.92L519.52 210.49L526.54 214.19L533.25 217.99L539.61 221.92L545.64 225.95L551.31 230.08L556.62 234.32L561.56 238.65L566.12 243.08L570.28 247.59L574.05 252.19L577.41 256.87L580.35 261.63L582.87 266.46L584.95 271.36L586.58 276.32L587.76 281.34L588.47 286.42L588.71 291.56L588.47 296.69L587.76 301.77L586.58 306.79L584.95 311.75L582.87 316.65L580.35 321.48L577.41 326.24L574.05 330.92L570.28 335.52L566.12 340.03L561.56 344.46L556.62 348.79L551.31 353.03L545.64 357.16L539.61 361.2L533.25 365.12L526.54 368.93L519.52 372.62L512.17 376.19L504.52 379.64L496.57 382.95L488.34 386.14L479.82 389.19L471.04 392.09L462 394.86L452.7 397.47L443.16 399.93L433.39 402.23L423.4 404.37L413.2 406.35L402.79 408.16L392.18 409.79L381.39 411.25L371.09 412.45L371.09 369.95L375.74 369.35L384.42 368.06L392.94 366.64L401.3 365.09L409.48 363.4L417.48 361.59L425.29 359.66L432.9 357.6L440.31 355.43L447.5 353.15L454.47 350.75L461.22 348.25L467.72 345.64L473.99 342.93L480 340.12L485.76 337.22L491.25 334.22L496.46 331.14L501.39 327.97L506.04 324.72L510.38 321.39L514.43 317.98L518.16 314.5L521.57 310.95L524.66 307.34L527.41 303.66L529.82 299.92L531.88 296.12L533.58 292.27L534.91 288.37L535.88 284.42L536.46 280.43L536.66 276.39L536.46 272.36L535.88 268.36L534.91 264.41L533.58 260.51L531.88 256.66L529.82 252.87L527.41 249.13L524.66 245.45L521.57 241.83L518.16 238.28L514.43 234.8L510.38 231.39L506.04 228.06L501.39 224.81L496.46 221.64L491.25 218.56L485.76 215.56L480 212.66L473.99 209.85L467.72 207.14L461.22 204.54L454.47 202.03L447.5 199.64L440.31 197.35L432.9 195.18L425.29 193.13L420.88 192.03L427.99 179.72L433.39 180.88L443.16 183.18ZM231.5 365.17L227.87 364.77L217.73 363.45L235.16 333.26L235.16 358.83L231.5 365.17ZM312.18 357.87L267.02 329.22L358.82 170.22L358.94 169.99L359.06 169.75L359.17 169.52L359.26 169.28L359.35 169.04L359.42 168.8L359.49 168.55L359.54 168.31L359.59 168.06L359.62 167.81L359.65 167.57L359.67 167.32L359.67 167.07L359.67 166.82L359.66 166.58L359.63 166.33L359.6 166.09L359.56 165.85L359.51 165.61L359.45 165.37L359.39 165.13L359.31 164.9L359.22 164.67L359.13 164.44L359.02 164.22L358.91 164L358.79 163.79L358.66 163.57L358.53 163.37L358.38 163.17L358.22 162.97L358.06 162.78L357.89 162.6L357.71 162.42L357.53 162.24L357.33 162.08L357.13 161.92L356.92 161.77L356.7 161.62L356.48 161.49L356.25 161.36L356.01 161.24L355.78 161.14L355.54 161.04L355.3 160.96L355.05 160.88L354.81 160.82L354.56 160.76L354.32 160.71L354.07 160.68L353.82 160.65L353.58 160.64L353.33 160.63L353.08 160.63L352.84 160.65L352.59 160.67L352.35 160.7L352.1 160.74L351.86 160.79L351.63 160.85L351.39 160.92L351.16 160.99L350.93 161.08L350.7 161.18L350.48 161.28L350.26 161.39L350.04 161.51L349.83 161.64L349.63 161.78L349.42 161.92L349.23 162.08L349.04 162.24L348.85 162.41L348.67 162.59L348.5 162.78L348.34 162.97L348.18 163.17L348.03 163.38L347.88 163.6L347.75 163.83L256.21 322.37L245.41 315.52L354.89 125.87L423.31 165.37L312.18 357.87ZM397.66 68.51L398.22 68.57L398.79 68.65L399.35 68.76L399.9 68.88L400.46 69.03L401.01 69.2L401.56 69.4L402.1 69.62L402.64 69.86L403.17 70.12L403.7 70.41L446.93 95.37L447.44 95.68L447.94 96.01L448.42 96.36L448.88 96.72L449.32 97.09L449.75 97.49L450.15 97.89L450.54 98.31L450.91 98.75L451.26 99.19L451.59 99.65L451.91 100.12L452.2 100.6L452.47 101.09L452.73 101.59L452.97 102.1L453.18 102.61L453.38 103.13L453.55 103.67L453.71 104.2L453.84 104.74L453.95 105.29L454.05 105.84L454.12 106.4L454.17 106.95L454.2 107.51L454.2 108.07L454.19 108.64L454.15 109.2L454.09 109.76L454.01 110.32L453.91 110.88L453.78 111.44L453.63 112L453.46 112.55L453.27 113.1L453.05 113.64L452.81 114.18L452.54 114.71L452.25 115.24L432.73 149.06L364.31 109.55L383.83 75.74L384.14 75.22L384.47 74.73L384.82 74.25L385.18 73.79L385.56 73.35L385.95 72.92L386.35 72.51L386.77 72.13L387.21 71.76L387.65 71.41L388.11 71.07L388.58 70.76L389.06 70.47L389.55 70.19L390.05 69.94L390.56 69.7L391.07 69.49L391.6 69.29L392.13 69.12L392.66 68.96L393.21 68.83L393.75 68.71L394.3 68.62L394.86 68.55L395.41 68.5L395.97 68.47L396.54 68.46L397.1 68.48L397.66 68.51Z" id="fAlTwyQkx"></path></defs><g><g><g><use xlink:href="#fAlTwyQkx" opacity="1" fill="#ffffff" fill-opacity="1"></use></g></g></g></svg>