<?xml version="1.0" encoding="iso-8859-1"?>
<!-- Generator: Adobe Illustrator 16.0.0, SVG Export Plug-In . SVG Version: 6.00 Build 0)  -->
<!DOCTYPE svg PUBLIC "-//W3C//DTD SVG 1.1//EN" "http://www.w3.org/Graphics/SVG/1.1/DTD/svg11.dtd">
<svg xmlns="http://www.w3.org/2000/svg" xmlns:xlink="http://www.w3.org/1999/xlink" version="1.1" id="Capa_1" x="0px" y="0px" width="512px" height="512px" viewBox="0 0 481.398 481.398" style="enable-background:new 0 0 481.398 481.398;" xml:space="preserve">
<g>
	<g>
		<path d="M423.146,317.185l-79.192-29.673l-128.559-48.175l-146.079-54.74L26.13,89.629c-0.931-2.033-3.171-3.133-5.355-2.601    c-2.178,0.526-3.673,2.53-3.558,4.77l4.761,94.273c-1.791,1.369-3.467,2.911-5.01,4.608l-1.912,5.03    c-5.825-1.876-12.149,1.094-14.322,6.886c-2.178,5.816,0.659,12.244,6.319,14.647c0.05,2.187,0.248,4.359,0.653,6.49    l33.307,31.933l174.855,65.521l-82.896,7.489c-4.51,4.64-5.086,11.845-1.362,17.142c1.604,2.287,3.83,3.93,6.283,4.87    l205.683,18.353l52.729,19.766c19.778,7.412,76.864,10.516,84.276-9.262C488,359.771,442.924,324.597,423.146,317.185z" fill="#FFFFFF"/>
		<path d="M286.821,259.306l-79.379-57.624c-2.462-0.919-5.216-1.132-7.936-0.467c-6.286,1.552-10.592,7.362-10.234,13.819    l11.538,12.043L286.821,259.306z" fill="#FFFFFF"/>
	</g>
</g>
<g>
</g>
<g>
</g>
<g>
</g>
<g>
</g>
<g>
</g>
<g>
</g>
<g>
</g>
<g>
</g>
<g>
</g>
<g>
</g>
<g>
</g>
<g>
</g>
<g>
</g>
<g>
</g>
<g>
</g>
</svg>
